<?xml version="1.0" encoding="UTF-8"?>
<svg width="345px" height="345px" viewBox="0 0 345 345" version="1.1" xmlns="http://www.w3.org/2000/svg" xmlns:xlink="http://www.w3.org/1999/xlink">
    <title>Imperial Navy</title>
    <defs>
        <linearGradient x1="50.0002204%" y1="99.9999265%" x2="50.0002204%" y2="-7.34721467e-05%" id="linearGradient-1">
            <stop stop-color="#F6691E" offset="0%"></stop>
            <stop stop-color="#A72A14" offset="100%"></stop>
        </linearGradient>
    </defs>
    <g id="Page-1" stroke="none" stroke-width="1" fill="none" fill-rule="evenodd">
        <g id="imperial-navy" transform="translate(-65.000000, 0.000000)" fill-rule="nonzero" fill="url(#linearGradient-1)">
            <g id="Layer_2" transform="translate(64.000000, 0.000000)">
                <g id="l1" transform="translate(0.822123, 0.168003)">
                    <path d="M172.306711,0.0882438592 C77.2823152,0.0882438592 0.171110922,77.2045069 0.171110922,172.221314 C0.171110922,267.235592 77.2797858,344.354385 172.306711,344.354385 C267.333636,344.354385 344.439781,267.238122 344.439781,172.221314 C344.442311,77.2045069 267.326047,0.0882438592 172.306711,0.0882438592 Z M164.184816,14.3616325 C164.278404,14.3464561 164.374521,14.3616325 164.478226,14.3616325 L165.206693,26.0348008 C155.27375,26.5002098 145.61904,27.9546133 136.293153,30.3170703 L139.186783,41.6993579 C114.7351,47.9014399 92.9392841,60.7760719 75.8784997,78.2896183 L67.4986067,70.0918419 C60.6793517,77.0932135 54.593622,84.7674047 49.276829,93.0056515 L39.4678265,86.5278652 C66.2617314,45.0988678 111.884469,17.0124408 164.184816,14.3616325 Z M180.142783,14.3616325 C232.564541,16.9264413 278.30869,45.0280446 305.148124,86.520277 L295.341651,93.0005927 C290.037505,84.7876399 283.954305,77.1008016 277.155285,70.1272535 L268.775392,78.2820302 C251.701961,60.7558367 229.898557,47.8913223 205.431697,41.6917697 L208.325327,30.3094821 C199.004499,27.9470251 189.344731,26.5002098 179.411788,26.0272126 L180.142783,14.3616325 Z M172.306711,65.9613362 C177.284565,65.9486892 182.262418,66.2471581 186.362571,66.8263901 L179.958137,120.113202 C193.412001,122.076014 205.216698,129.125444 213.363887,139.253151 L256.105641,107.190511 C261.303553,113.670827 267.186931,123.81118 270.265207,131.500548 L221.15443,152.504663 C223.623122,158.610628 225.001643,165.247766 225.001643,172.228902 C225.001643,178.95204 223.75718,185.389356 221.44784,191.295499 L270.164031,212.114968 C267.154048,219.849864 261.333905,229.967453 256.216935,236.48571 L213.766061,204.736716 C205.636578,215.081951 193.692764,222.326144 180.066901,224.339544 L186.365101,276.72842 C178.167324,277.995648 166.451156,277.972884 158.255909,276.806831 L164.549049,224.339544 C150.90801,222.310968 138.984431,215.054127 130.84989,204.693716 L88.5103096,236.450298 C83.3149276,229.98263 77.4366084,219.837217 74.3532732,212.14532 L123.17064,191.262617 C120.871418,185.343827 119.614307,178.949511 119.614307,172.233961 C119.614307,165.247766 120.985241,158.580275 123.461521,152.469251 L74.4569785,131.53596 C77.4619024,123.81371 83.2871043,113.691062 88.4015455,107.170276 L131.249535,139.260739 C139.394194,129.133032 151.196361,122.083602 164.657813,120.12079 L158.25338,66.914919 C162.356062,66.2749815 167.333916,65.9689244 172.306711,65.9613362 Z M31.6444008,100.050023 L42.1793403,105.247934 C37.7351893,113.863061 34.1080337,122.971421 31.416755,132.466778 L42.6877491,135.658877 C39.4197679,147.283987 37.6466604,159.549034 37.6466604,172.221314 C37.6466604,184.906241 39.4121797,197.178877 42.6877491,208.811575 L31.416755,212.006203 C34.1004455,221.491443 37.7427775,230.577038 42.1793403,239.179518 L31.6444008,244.379959 C20.5074647,222.735907 14.2295008,198.208342 14.2295008,172.218785 C14.2295008,146.234287 20.5074647,121.699134 31.6444008,100.050023 Z M312.974079,100.050023 C324.105957,121.699134 330.396568,146.231758 330.396568,172.213726 C330.396568,198.200753 324.105957,222.735907 312.974079,244.372371 L302.43914,239.17193 C306.875703,230.561862 310.510447,221.483855 313.196666,211.991027 L301.925672,208.803987 C305.211359,197.1637 306.976879,184.896124 306.976879,172.213726 C306.976879,159.549034 305.198712,147.278928 301.925672,135.651289 L313.196666,132.45919 C310.518035,122.956244 306.880762,113.850414 302.43914,105.240346 L312.974079,100.050023 Z M49.2844171,251.454683 C54.6037395,259.677753 60.6945281,267.364591 67.5061949,274.358375 L75.8860879,266.15301 C92.9494017,283.671615 114.742688,296.556365 139.194371,302.740741 L136.30327,314.133146 C145.62157,316.472839 155.281338,317.924713 165.21681,318.407828 L164.485814,330.091114 C112.058998,327.513658 66.3199076,299.409525 39.477944,257.92741 L49.2844171,251.454683 Z M295.372004,251.454683 L305.140536,257.92994 C278.301102,299.412055 232.556953,327.526305 180.135195,330.093643 L179.406729,318.410357 C189.334613,317.939889 198.991852,316.472839 208.320269,314.135676 L205.424109,302.743271 C229.88591,296.546247 251.699431,283.689321 268.772863,266.15554 L277.150226,274.322963 C283.954305,267.321592 290.06027,259.665106 295.372004,251.454683 Z" id="p1"></path>
                </g>
            </g>
        </g>
    </g>
</svg>
